<svg className="w-8 h-8 mr-3" viewBox="0 0 24 24" version="1.1" width="26"
     height="26" aria-hidden="true">
<path d="M15 9H9V7C9 5.346 10.346 4 12 4C13.398 4 14.702 4.96702 15.032 6.24902C15.169 6.78302 15.712 7.10799 16.249 6.96899C16.784 6.83099 17.106 6.28598 16.968 5.75098C16.409 3.57798 14.32 2 12 2C9.243 2 7 4.243 7 7V9.42395C5.237 10.198 4 11.955 4 14V17C4 19.757 6.243 22 9 22H15C17.757 22 20 19.757 20 17V14C20 11.243 17.757 9 15 9ZM18 17C18 18.654 16.654 20 15 20H9C7.346 20 6 18.654 6 17V14C6 12.346 7.346 11 9 11H15C16.654 11 18 12.346 18 14V17ZM13 15V16C13 16.553 12.552 17 12 17C11.448 17 11 16.553 11 16V15C11 14.447 11.448 14 12 14C12.552 14 13 14.447 13 15Z" fill="#41416E"/>
</svg>
